<?xml version="1.0" encoding="UTF-8" standalone="no"?>
<!-- Created with Inkscape (http://www.inkscape.org/) -->

<svg
   width="512"
   height="512"
   viewBox="0 0 512 512"
   version="1.1"
   id="svg1"
   inkscape:version="1.4 (e7c3feb100, 2024-10-09)"
   sodipodi:docname="unknown.svg"
   xmlns:inkscape="http://www.inkscape.org/namespaces/inkscape"
   xmlns:sodipodi="http://sodipodi.sourceforge.net/DTD/sodipodi-0.dtd"
   xmlns:xlink="http://www.w3.org/1999/xlink"
   xmlns="http://www.w3.org/2000/svg"
   xmlns:svg="http://www.w3.org/2000/svg">
  <sodipodi:namedview
     id="namedview1"
     pagecolor="#ffffff"
     bordercolor="#000000"
     borderopacity="0.25"
     inkscape:showpageshadow="2"
     inkscape:pageopacity="0.0"
     inkscape:pagecheckerboard="0"
     inkscape:deskcolor="#d1d1d1"
     inkscape:document-units="px"
     inkscape:zoom="1.5664062"
     inkscape:cx="256.31921"
     inkscape:cy="241.31672"
     inkscape:window-width="1920"
     inkscape:window-height="1014"
     inkscape:window-x="0"
     inkscape:window-y="29"
     inkscape:window-maximized="1"
     inkscape:current-layer="layer1" />
  <defs
     id="defs1">
    <rect
       x="183.22195"
       y="120.01995"
       width="91.291774"
       height="223.44141"
       id="rect2" />
    <linearGradient
       id="linearGradient15"
       inkscape:collect="always">
      <stop
         style="stop-color:#dcefeb;stop-opacity:1;"
         offset="0"
         id="stop16" />
      <stop
         style="stop-color:#b3b3b3;stop-opacity:1"
         offset="1"
         id="stop17" />
    </linearGradient>
    <linearGradient
       id="swatch9"
       inkscape:swatch="solid">
      <stop
         style="stop-color:#7f7f7f;stop-opacity:1;"
         offset="0"
         id="stop9" />
    </linearGradient>
    <linearGradient
       id="swatch3">
      <stop
         style="stop-color:#cccccc;stop-opacity:1;"
         offset="0"
         id="stop3" />
    </linearGradient>
    <linearGradient
       inkscape:collect="always"
       xlink:href="#linearGradient15"
       id="linearGradient17"
       x1="456.72983"
       y1="516.46881"
       x2="328.56628"
       y2="402.19452"
       gradientUnits="userSpaceOnUse" />
  </defs>
  <g
     inkscape:label="图层 1"
     inkscape:groupmode="layer"
     id="layer1"
     style="opacity:1">
    <rect
       style="fill:url(#linearGradient17);stroke-width:0;fill-rule:evenodd;stroke:#858585;stroke-dasharray:none;stroke-linejoin:round;fill-opacity:1;stroke-opacity:0"
       id="rect1"
       width="310.14401"
       height="432"
       x="100"
       y="40"
       ry="47.527008" />
    <rect
       style="fill:#808080;fill-opacity:1;fill-rule:evenodd;stroke:#858585;stroke-width:0;stroke-linejoin:round;stroke-opacity:0"
       id="rect3-2"
       width="40"
       height="40"
       x="180"
       y="70"
       ry="20" />
    <path
       style="fill:#808080"
       id="path11"
       d="m 278.00423,384.42457 c -0.17854,0.45999 -0.42232,0.89972 -0.53563,1.37996 -0.26422,1.11987 -0.39486,2.26711 -0.59229,3.40067 -0.44691,2.16738 -0.82244,4.35071 -1.34073,6.50214 -2.22745,9.24619 -5.30392,18.19942 -8.43067,27.16846 -1.82411,4.62282 -3.69376,9.22757 -5.52039,13.8494 -0.60882,1.54048 -1.16085,3.10394 -1.80866,4.62843 -0.43583,1.02563 -1.00152,1.99263 -1.44019,3.01704 -0.23601,0.55113 -1.03969,1.31656 -0.58072,1.7023 2.11062,1.77385 4.8528,2.61827 7.2792,3.9274 0.14013,-0.9031 0.21675,-1.81838 0.42038,-2.70931 1.20266,-5.26207 3.2189,-10.36951 5.25605,-15.34754 1.78353,-4.35829 3.46197,-8.09767 5.35714,-12.40511 3.29187,-6.62854 6.0007,-13.70881 10.35676,-19.75833 2.10309,-2.9207 3.10319,-3.6615 5.62426,-6.05623 2.4605,-1.74307 5.18701,-3.46042 8.30081,-3.65733 0.8214,-0.052 3.02939,0.80807 2.45986,0.21389 -5.14572,-5.36838 -4.25703,-2.44823 -3.95708,-0.3682 -0.22803,1.07837 -0.34487,2.1864 -0.6841,3.23512 -1.19647,3.69872 -3.12566,7.30004 -5.07727,10.61931 -3.75231,6.38189 -8.29239,12.13126 -12.81293,17.96968 -2.62693,3.37159 -5.56326,6.49469 -8.72827,9.36455 -0.46998,0.42615 -0.97351,0.81383 -1.45494,1.22701 -0.19815,0.17006 -0.80662,0.38673 -0.58361,0.52257 2.48351,1.5127 5.2087,2.58724 7.81305,3.88087 0.71718,-0.68622 0.72492,-0.76248 1.57656,-1.29705 0.25649,-0.16099 1.97277,-0.94365 2.09305,-1.19945 0.0799,-0.16994 -0.06,-0.37075 -0.09,-0.55612 -0.1359,-0.51459 -2.44275,-1.88952 -1.66074,-1.77821 0,0 -0.609,-0.44777 -0.609,-0.44777 v 0 c -1.13792,0.0225 -1.9381,-1.22248 -3.09476,-1.27682 -0.31087,-0.0324 -0.62255,-0.1367 -0.9326,-0.0973 -1.09375,0.13908 -2.7699,2.23606 -3.99014,2.33188 2.12027,1.59749 4.11665,3.37427 6.3608,4.79247 0.19347,0.12226 0.0815,-0.45418 0.17027,-0.66514 0.23111,-0.54929 0.48597,-1.09077 0.7853,-1.60607 2.10344,-3.62111 4.68302,-6.96847 7.10314,-10.37257 4.31714,-5.97726 8.55045,-12.01215 12.83664,-18.01168 2.08971,-2.92503 4.91685,-6.64624 6.56918,-9.9772 0.52349,-1.05533 0.8108,-2.21216 1.2162,-3.31824 -0.12522,-0.80037 0.24299,-1.87809 -0.37565,-2.40111 -2.01351,-1.70227 -4.48615,-2.83373 -6.94431,-3.78736 -0.56166,-0.2179 -1.18163,0.24227 -1.76011,0.41051 -2.91464,0.8477 -5.47122,2.2068 -7.68734,4.32244 -2.05001,2.32439 -3.45728,3.75152 -5.15565,6.42795 -0.87042,1.37168 -1.60348,2.82693 -2.34543,4.27215 -2.67607,5.21268 -4.77697,10.67719 -7.05075,16.0697 -2.61601,6.1005 -5.16962,12.25569 -8.43416,18.04953 -0.89551,1.58935 -3.7258,6.26826 -5.32562,7.84023 -0.55667,0.54698 -1.33714,0.80518 -2.0057,1.20776 2.12338,1.42728 3.97596,3.37975 6.37015,4.28184 0.56414,0.21256 0.11655,-1.2021 0.23448,-1.79332 0.22588,-1.1324 0.48176,-2.2603 0.79574,-3.3715 0.45577,-1.613 1.02168,-3.19292 1.512,-4.79574 1.47565,-4.82383 2.84762,-9.67901 4.34899,-14.4951 3.15152,-8.96151 3.15564,-9.32955 6.78043,-18.18744 1.10172,-2.69225 2.27586,-5.35432 3.42565,-8.0264 0.98419,-2.28723 3.13925,-6.38637 3.46819,-9.30029 0.0751,-0.66493 -0.19218,-1.32443 -0.28827,-1.98665 z" />
    <path
       style="fill:#808080"
       id="path12"
       d="m 293.19555,424.61638 c 0.7396,0.85364 0.89707,2.25752 1.74446,3.02827 0.60132,0.54692 2.73185,1.93298 3.60266,2.51013 0,0 0.69187,0.30447 0.69187,0.30447 v 0 c 0.42393,0.0617 2.24218,0.34559 2.42665,0.258 0.063,-0.0299 -0.63466,-2.1841 -0.68284,-2.48088 z" />
    <path
       style="fill:#808080"
       id="path13"
       d="m 338.95224,375.00537 c -0.41143,1.18877 -1.23873,2.19497 -1.65294,3.37821 -0.58828,1.68052 -0.93507,3.4366 -1.45314,5.14007 -0.74669,2.45518 -1.50955,4.90628 -2.34061,7.33419 -2.14757,6.27402 -4.55059,12.38506 -6.91802,18.57972 -1.25253,3.05872 -2.51366,6.11392 -3.75759,9.17614 -1.54897,3.81314 -4.01198,9.99658 -5.63287,14.00149 -0.55543,1.37236 -1.13808,2.73376 -1.67969,4.11163 -0.25977,0.66087 -0.75992,1.29428 -0.72401,2.00346 0.0143,0.2814 0.54261,-0.15205 0.81391,-0.22808 0,0 -0.6647,-0.35996 -0.6647,-0.35996 v 0 c 0.17001,0.3193 0.20687,1.15527 0.51003,0.95791 0.58846,-0.38309 0.64933,-1.24673 0.92536,-1.89237 0.58257,-1.36256 1.08984,-2.75615 1.64887,-4.12853 2.27248,-5.57883 3.35878,-8.08627 5.80605,-13.90381 1.2802,-3.04324 2.55731,-6.08777 3.83597,-9.13165 3.465,-7.56078 4.70393,-10.4972 8.41675,-17.73849 1.14865,-2.24027 2.39527,-4.429 3.57676,-6.65213 0.81789,-1.53896 1.77077,-3.01712 2.42129,-4.63397 0.37381,-0.9291 0.51749,-2.89428 0.62683,-4.03965 z" />
    <path
       style="fill:#808080"
       id="path14"
       d="m 339.26352,394.35487 c 0.25285,-0.21378 0.48165,-0.45978 0.75855,-0.64133 0.48862,-0.32038 2.10144,-1.07079 2.56935,-1.28451 1.80773,-0.82569 3.60178,-1.45923 5.51102,-2.00711 2.01132,-0.36741 2.21556,-0.61401 4.31406,-0.0945 0.56454,0.13976 2.11283,0.96716 1.60578,0.68232 -13.80691,-7.75612 -6.10231,-4.80732 -5.82965,-2.31827 0.0617,0.56339 -0.0871,1.13017 -0.13065,1.69525 -1.31994,4.68571 -4.4852,8.43578 -7.47257,12.15525 -0.43022,0.85755 -1.63511,1.30555 -1.83562,2.30187 -0.1469,0.72993 0.31948,0.92452 0.48249,1.53576 0.28127,2.46626 -0.34323,4.84014 -0.80741,7.24264 0,0 0.63656,0.40766 0.63656,0.40766 v 0 c 3.03154,-0.31342 3.96496,-0.23132 6.73939,-1.12495 1.13812,-0.36658 2.82725,-0.57174 2.66778,-2.198 -0.0353,-0.36023 -0.41267,-0.59477 -0.619,-0.89216 -0.21298,-0.11698 -1.6818,-0.8176 -1.76254,-0.9821 -0.36826,-0.75029 0.91928,-1.85432 1.15001,-2.33271 2.88769,-3.92783 5.60793,-8.02841 7.82072,-12.37464 0.0455,-0.14943 1.08793,-2.78979 0.46665,-3.26511 -2.41557,-1.84808 -5.14305,-3.26343 -7.84689,-4.65613 -0.25526,-0.13148 -0.58362,0.0558 -0.84227,0.18048 -3.71945,1.79275 2.80398,-0.54385 -2.76231,1.28513 -3.27978,0.98931 -6.65998,1.78943 -9.54632,3.72547 z" />
    <text
       xml:space="preserve"
       id="text1"
       style="font-size:192px;text-align:start;writing-mode:lr-tb;direction:ltr;white-space:pre;shape-inside:url(#rect2);display:inline;fill:#666666;fill-opacity:1;fill-rule:evenodd;stroke:#858585;stroke-width:0;stroke-linejoin:round;stroke-opacity:0"
       transform="matrix(1.6534392,0,0,1.4633578,-120.59832,-113.90594)"><tspan
         x="183.22266"
         y="312.97953"
         id="tspan1">?</tspan></text>
    <rect
       style="fill:#666666;fill-opacity:1;fill-rule:evenodd;stroke:#858585;stroke-width:0;stroke-linejoin:round;stroke-opacity:0"
       id="rect3"
       width="40"
       height="40"
       x="130"
       y="70"
       ry="20" />
    <rect
       style="fill:#808080;fill-opacity:1;fill-rule:evenodd;stroke:#858585;stroke-width:0;stroke-linejoin:round;stroke-opacity:0"
       id="rect4"
       width="14.683292"
       height="40.219452"
       x="328.77808"
       y="68.947632"
       ry="7.3416462" />
    <rect
       style="fill:#808080;fill-opacity:1;fill-rule:evenodd;stroke:#858585;stroke-width:0;stroke-linejoin:round;stroke-opacity:0"
       id="rect5"
       width="49.795513"
       height="14.683292"
       x="330.05487"
       y="94.483795"
       ry="7.3416462" />
  </g>
</svg>
