<?xml version="1.0" encoding="UTF-8" standalone="no"?>
<!-- Created with Inkscape (http://www.inkscape.org/) -->

<svg
   width="512"
   height="512"
   viewBox="0 0 512 512"
   version="1.1"
   id="svg1"
   inkscape:export-filename="位图.png"
   inkscape:export-xdpi="96"
   inkscape:export-ydpi="96"
   inkscape:version="1.4.1 (93de688d07, 2025-03-30)"
   sodipodi:docname="backDir.svg"
   xmlns:inkscape="http://www.inkscape.org/namespaces/inkscape"
   xmlns:sodipodi="http://sodipodi.sourceforge.net/DTD/sodipodi-0.dtd"
   xmlns="http://www.w3.org/2000/svg"
   xmlns:svg="http://www.w3.org/2000/svg">
  <sodipodi:namedview
     id="namedview1"
     pagecolor="#ffffff"
     bordercolor="#000000"
     borderopacity="0.25"
     inkscape:showpageshadow="2"
     inkscape:pageopacity="0.0"
     inkscape:pagecheckerboard="0"
     inkscape:deskcolor="#d1d1d1"
     inkscape:document-units="px"
     inkscape:export-bgcolor="#00000000"
     inkscape:zoom="1.078125"
     inkscape:cx="235.13043"
     inkscape:cy="287.53623"
     inkscape:window-width="1202"
     inkscape:window-height="1014"
     inkscape:window-x="50"
     inkscape:window-y="29"
     inkscape:window-maximized="0"
     inkscape:current-layer="layer1" />
  <defs
     id="defs1">
    <linearGradient
       id="swatch22"
       inkscape:swatch="solid">
      <stop
         style="stop-color:#000000;stop-opacity:1;"
         offset="0"
         id="stop22" />
    </linearGradient>
    <linearGradient
       id="swatch21"
       inkscape:swatch="solid">
      <stop
         style="stop-color:#000000;stop-opacity:1;"
         offset="0"
         id="stop21" />
    </linearGradient>
    <linearGradient
       id="swatch6"
       inkscape:swatch="solid">
      <stop
         style="stop-color:#e92b2b;stop-opacity:0.38948542;"
         offset="0"
         id="stop6" />
    </linearGradient>
    <inkscape:path-effect
       effect="bspline"
       id="path-effect4"
       is_visible="true"
       lpeversion="1.3"
       weight="33.333333"
       steps="2"
       helper_size="0"
       apply_no_weight="true"
       apply_with_weight="true"
       only_selected="false"
       uniform="false" />
    <inkscape:path-effect
       effect="fillet_chamfer"
       id="path-effect1"
       is_visible="true"
       lpeversion="1"
       nodesatellites_param="F,0,0,1,0,0,0,1 @ F,0,0,1,0,0,0,1 @ F,0,0,1,0,0,0,1 @ F,0,0,1,0,0,0,1 @ F,0,0,1,0,0,0,1 @ F,0,0,1,0,0,0,1 @ F,0,0,1,0,0,0,1 @ F,0,0,1,0,0,0,1 @ F,0,0,1,0,0,0,1"
       radius="0"
       unit="px"
       method="auto"
       mode="F"
       chamfer_steps="1"
       flexible="false"
       use_knot_distance="true"
       apply_no_radius="true"
       apply_with_radius="true"
       only_selected="false"
       hide_knots="false" />
    <inkscape:path-effect
       effect="fill_between_many"
       method="originald"
       linkedpaths="#path8,0,1|"
       id="path-effect19" />
  </defs>
  <g
     inkscape:label="图层 1"
     inkscape:groupmode="layer"
     id="layer1">
    <rect
       style="fill:#cccccc;fill-rule:evenodd;stroke:#858585;stroke-width:0;stroke-linejoin:round;stroke-opacity:0"
       id="rect3"
       width="45.254837"
       height="149.53769"
       x="358.75931"
       y="113.46503"
       ry="22.955353" />
    <rect
       style="fill:#cccccc;fill-rule:evenodd;stroke:#858585;stroke-width:0;stroke-linejoin:round;stroke-opacity:0"
       id="rect2"
       width="198.72774"
       height="49.190037"
       x="205.28642"
       y="113.46501"
       ry="24.595018" />
    <g
       id="path6" />
    <path
       id="rect1"
       style="fill:#cccccc;fill-rule:evenodd;stroke:#858585;stroke-width:0;stroke-linejoin:round;stroke-opacity:0"
       d="M 148.38477,50 C 93.879725,50 50,93.879725 50,148.38477 V 363.61523 C 50,418.12027 93.879725,462 148.38477,462 H 363.61523 C 418.12027,462 462,418.12027 462,363.61523 v -129.3125 c -73.49612,-0.46399 -118.1268,-13.49132 -145.72461,-32.41601 -0.77889,3.37694 -2.58103,9.05624 -6.62109,14.21484 -3.10981,3.9708 -8.13361,7.82017 -14.66992,8.66992 -6.53632,0.84976 -13.69788,-1.22153 -21.3379,-6.0996 -49.05308,-31.31984 -73.07401,-46.6808 -85.42773,-54.44532 -5.50325,-3.45888 -4.81349,-2.9436 -12.17633,-8.42074 -5.22978,-3.89038 -7.51306,-5.45578 -10.87054,-10.88384 -4.05253,-6.55174 -3.43334,-9.51489 -1.59961,-15.14844 1.83372,-5.63356 6.31196,-10.40646 12.96093,-14.38477 24.46438,-14.63788 36.70244,-21.930624 42.84571,-25.566404 C 232.67799,82.193311 245.76462,74.202053 258.9043,66.302834 253.39091,56.211308 244.18061,50 227.19531,50 Z"
       sodipodi:nodetypes="ssssssccsssssssssscs" />
    <g
       id="path21"
       transform="matrix(0.97794769,0,0,0.97135137,1.2849074,4.6278538)"
       style="fill:#cccccc">
      <path
         style="fill:#cccccc;fill-rule:evenodd;stroke-width:0.918153;stroke-linejoin:round"
         d="m 310.63062,88.675951 c 0,0 0.13398,-36.946288 -28.26163,-19.66226 -88.71917,54.002189 0.48467,-0.442625 -88.82226,53.624349 -20.47107,12.39332 0,25.62052 0,25.62052 0,0 -0.7325,-0.65622 88.82226,57.1993 24.15343,15.60395 28.26162,-13.10816 28.26162,-13.10816 z"
         id="path22" />
    </g>
  </g>
</svg>
