<?xml version="1.0" encoding="UTF-8" standalone="no"?>
<!-- Created with Inkscape (http://www.inkscape.org/) -->

<svg
   width="512"
   height="512"
   viewBox="0 0 512 512"
   version="1.1"
   id="svg1"
   sodipodi:docname="settings.svg"
   inkscape:version="1.4.1 (93de688d07, 2025-03-30)"
   xmlns:inkscape="http://www.inkscape.org/namespaces/inkscape"
   xmlns:sodipodi="http://sodipodi.sourceforge.net/DTD/sodipodi-0.dtd"
   xmlns="http://www.w3.org/2000/svg"
   xmlns:svg="http://www.w3.org/2000/svg">
  <sodipodi:namedview
     id="namedview1"
     pagecolor="#ffffff"
     bordercolor="#000000"
     borderopacity="0.25"
     inkscape:showpageshadow="2"
     inkscape:pageopacity="0.0"
     inkscape:pagecheckerboard="0"
     inkscape:deskcolor="#d1d1d1"
     inkscape:document-units="px"
     inkscape:zoom="1.524699"
     inkscape:cx="176.10033"
     inkscape:cy="268.24967"
     inkscape:window-width="1920"
     inkscape:window-height="1014"
     inkscape:window-x="0"
     inkscape:window-y="29"
     inkscape:window-maximized="1"
     inkscape:current-layer="layer1"
     showgrid="false" />
  <defs
     id="defs1" />
  <g
     inkscape:label="图层 1"
     inkscape:groupmode="layer"
     id="layer1">
    <path
       id="path1"
       style="fill:#cccccc;fill-rule:evenodd;stroke:#000000;stroke-width:16.3546;stroke-linejoin:round;stroke-opacity:0"
       d="M 268.3457 60.099609 C 258.08129 59.353676 256 62.582986 256 79.164062 L 256 98.177734 C 242.41374 98.252204 228.65959 100.09148 215.21094 103.77148 L 210.25977 85.294922 C 207.01782 62.475682 199.48312 67.560435 181.05078 75.054688 C 160.4128 83.294134 156.57431 83.788078 167.67188 103.00977 L 177.26758 119.63086 C 165.36177 126.52721 154.40888 134.95083 144.6875 144.6875 L 131.09961 131.09961 C 116.84077 112.92509 112.87885 121.01098 100.61914 136.77344 C 86.865663 154.22781 83.788068 156.57432 103.00977 167.67188 L 119.63086 177.26758 C 112.71213 189.16953 107.38042 201.92558 103.77148 215.21094 L 85.294922 210.25977 C 63.911992 201.65871 64.547786 210.7276 61.822266 230.4375 C 58.684971 252.30214 57.05596 256 79.164062 256 L 98.177734 256 C 98.253284 269.78228 100.13386 283.49528 103.77148 296.78906 L 85.294922 301.74023 C 62.475682 304.98218 67.560435 312.51688 75.054688 330.94922 C 83.294134 351.5872 83.788078 355.42568 103.00977 344.32812 L 119.63086 334.73242 C 126.42937 346.46933 134.83775 357.47822 144.6875 367.3125 L 131.09961 380.90039 C 112.92509 395.15923 121.01098 399.12115 136.77344 411.38086 C 154.22781 425.13434 156.57432 428.21192 167.67188 408.99023 L 177.26758 392.36914 C 189.00051 399.18962 201.7711 404.57762 215.21094 408.22852 L 210.25977 426.70508 C 201.65871 448.088 210.7276 447.45222 230.4375 450.17773 C 252.30215 453.31503 256 454.94404 256 432.83594 L 256 413.82227 C 269.58644 413.74777 283.3406 411.90847 296.78906 408.22852 L 301.74023 426.70508 C 304.98218 449.52432 312.51688 444.43956 330.94922 436.94531 C 351.5872 428.70587 355.42568 428.21192 344.32812 408.99023 L 334.73242 392.36914 C 346.46933 385.57063 357.47822 377.16225 367.3125 367.3125 L 380.90039 380.90039 C 395.15923 399.07491 399.12115 390.98902 411.38086 375.22656 C 425.13434 357.77219 428.21193 355.42568 408.99023 344.32812 L 392.36914 334.73242 C 399.18962 322.99949 404.57762 310.2289 408.22852 296.78906 L 426.70508 301.73828 C 448.088 310.33935 447.45222 301.2724 450.17773 281.5625 C 453.31503 259.69785 454.94404 256 432.83594 256 L 413.82227 256 C 413.80827 242.40587 412.02834 228.63597 408.4043 215.16406 L 426.79102 210.23633 C 449.55884 207.01363 444.41201 199.41538 436.94531 181.05078 C 428.72732 160.53076 428.28441 156.53265 409.12891 167.5918 L 392.64258 177.10938 C 385.8571 165.32976 377.45269 154.2775 367.59766 144.40234 L 381.04297 130.95703 C 399.14047 116.79225 390.86119 112.77943 375.22656 100.61914 C 357.84972 86.957122 355.46739 83.715529 344.4082 102.87109 L 334.89062 119.35742 C 323.11871 112.56179 310.3102 107.20625 296.83594 103.5957 L 301.76172 85.207031 C 310.354 63.878312 301.19996 64.537769 281.5625 61.822266 C 276.09634 61.037942 271.76717 60.348254 268.3457 60.099609 z M 256 194.23438 A 61.764706 61.764706 0 0 1 317.76562 256 A 61.764706 61.764706 0 0 1 256 317.76562 A 61.764706 61.764706 0 0 1 194.23438 256 A 61.764706 61.764706 0 0 1 256 194.23438 z " />
  </g>
</svg>
